PathFileType	4	(X/Y/Z)	C:/Users/beibeiliu/ov580/test_trc/User3\sequence.4_training_dense_left.trc
DataRate	CameraRate	NumFrames	NumMarkers	Units	OrigDataRate	OrigDataStartFrame	OrigNumFrames
120	120	19	19	mm	120	183	209
Frame#	Time	ThumbCMC			ThumbMCP			ThumbIP			ThumbTip			IndexMCP			IndexPIP			IndexTip			MiddleMCP			MiddlePIP			MiddleTip			RingMCP			RingPIP			RingTip			PinkyMCP			PinkyPIP			PinkyTip			BackHand1			BackHand2			BackHand3	
		X0	Y0	Z0	X1	Y1	Z1	X2	Y2	Z2	X3	Y3	Z3	X4	Y4	Z4	X5	Y5	Z5	X6	Y6	Z6	X7	Y7	Z7	X8	Y8	Z8	X9	Y9	Z9	X10	Y10	Z10	X11	Y11	Z11	X12	Y12	Z12	X13	Y13	Z13	X14	Y14	Z14	X15	Y15	Z15	X16	Y16	Z16	X17	Y17	Z17	X18	Y18	Z18	
182	1.51667	-253.447	-21.9463	-1.68886	-258.861	-10.5657	-32.7209	-263.696	-2.46346	-61.3138	-264.667	4.38568	-78.5066	-268.483	-70.2521	-64.0164	-268.891	-73.9284	-90.1914	-265.102	-77.0552	-119.831	-259.405	-92.1217	-62.4354	-257.709	-100.927	-93.4192	-250.284	-104.005	-119.664	-239.978	-101.398	-54.3514	-234.248	-112.139	-77.4466	-222.651	-118.656	-104.261	-216.428	-106.564	-37.8897	-207.453	-114.732	-54.3218	-198.549	-119.645	-78.8931	-241.525	-87.0565	0.282301	-239.227	-75.3671	28.8589	-260.719	-58.762	4.602	
183	1.525	-259.555	-23.6216	-3.17821	-264.73	-10.6609	-32.4835	-270.72	-3.51838	-59.5674	-270.915	-2.03891	-81.9306	-278.755	-73.6886	-63.3779	-282.525	-75.084	-93.902	-279.99	-77.9496	-116.134	-269.734	-95.0706	-57.1076	-272.117	-104.345	-90.4155	-265.424	-109.051	-120.621	-250.956	-104.795	-49.6669	-246.747	-118.091	-74.6487	-239.832	-121.693	-99.5145	-228.218	-109.779	-34.5929	-223.413	-116.162	-57.1735	-217.295	-125.262	-75.5081	-253.598	-84.2226	2.71792	-246.328	-78.3154	29.9915	-268.103	-57.5693	7.64512	
184	1.53333	-266.447	-21.7958	-5.8457	-269.499	-10.0635	-32.029	-274.523	-5.16205	-59.1997	-276.488	0.511611	-77.617	-288.04	-71.0723	-60.6881	-291.593	-73.9105	-86.9628	-289.995	-80.9583	-111.867	-281.252	-96.1703	-59.9041	-286.64	-100.554	-84.9745	-282.179	-108.002	-116.715	-262.555	-107.995	-50.2101	-261.883	-116.451	-72.7952	-253.926	-125.334	-100.397	-240.606	-111.871	-36.5698	-236.743	-119.124	-57.0364	-226.672	-128.757	-74.9732	-262.332	-86.4231	2.66439	-253.13	-74.3033	28.9497	-276.246	-56.4948	5.59797	
185	1.54167	-267.807	-18.7651	-4.56199	-272.568	-9.23007	-32.3704	-279.899	-2.07489	-60.1501	-281.213	1.21261	-80.4443	-297.709	-67.3146	-61.8624	-300.994	-71.3873	-85.2266	-301.089	-77.5563	-109.913	-294.531	-88.8716	-57.3672	-295.883	-99.1863	-82.8843	-293.544	-106.443	-114.151	-273.639	-102.067	-45.9266	-276.974	-112.512	-69.6382	-269.417	-121.677	-97.7379	-253.123	-107.703	-33.2525	-246.796	-121.658	-56.4559	-241.84	-128.246	-74.5924	-271.413	-83.4662	3.37139	-262.268	-72.5798	26.4438	-282.24	-51.8754	5.79448	
186	1.55	-270.885	-13.4499	-4.15214	-273.421	-5.27406	-32.5275	-279.165	5.37622	-58.7085	-280.244	8.07131	-77.6368	-303.038	-60.1191	-57.7405	-310.486	-65.5073	-88.7444	-311.466	-69.6383	-108.82	-299.874	-85.321	-53.1122	-307.613	-92.946	-84.4438	-306.479	-101.419	-113.529	-286.274	-98.5913	-49.766	-287.148	-111.996	-71.3481	-282.015	-121.721	-98.9665	-262.067	-111.453	-35.3648	-261.475	-117.744	-54.3927	-258.121	-126.859	-78.1848	-275.355	-83.2702	5.8468	-269.205	-71.8594	28.6874	-285.757	-45.3782	8.81512	
187	1.55833	-268.695	-14.8143	-3.19985	-271.284	-4.20568	-30.3848	-276.866	8.45149	-58.763	-279.649	13.9997	-78.4851	-309.947	-54.075	-59.971	-316.913	-54.3032	-83.0952	-318.947	-61.0647	-112.707	-310.215	-75.7231	-57.3392	-315.182	-86.3849	-82.2294	-315.867	-92.5384	-111.591	-295.708	-92.0489	-49.7935	-298.373	-102.532	-71.6879	-295.698	-113.736	-94.6497	-273.065	-108.22	-35.3978	-272.112	-117.739	-54.7163	-269.523	-125.655	-76.6982	-285.132	-75.309	0.586578	-271.927	-70.4586	28.0157	-289.364	-46.1116	7.39425	
188	1.56667	-268.605	-9.5196	-3.66239	-270.147	2.87175	-32.0771	-274.319	13.0197	-59.3727	-275.187	16.836	-80.9518	-313.526	-44.0291	-58.643	-320.507	-43.8718	-83.6949	-322.533	-51.3623	-111.618	-312.957	-70.167	-53.4608	-321.316	-73.8219	-82.5401	-325.188	-81.1072	-117.349	-301.317	-88.8549	-48.1004	-306.015	-99.259	-71.2605	-305.766	-107.248	-98.0611	-284.044	-101.797	-38.0346	-282.448	-112.637	-53.3978	-280.328	-122.374	-74.5255	-291.842	-75.4064	2.72637	-276.379	-64.3722	31.265	-292.914	-40.016	6.63723	
189	1.575	-266.689	-5.74776	-4.43954	-266.926	3.10722	-31.8301	-267.09	18.4226	-57.8693	-268.174	25.0332	-80.7456	-313.65	-31.6863	-57.1078	-321.642	-32.3165	-85.6316	-324.066	-35.4192	-110.837	-318.23	-57.8865	-55.3037	-326.305	-64.0957	-82.5608	-329.292	-70.8822	-116.033	-308.717	-77.3823	-50.6384	-313.635	-91.8584	-73.9304	-315.15	-98.4812	-99.885	-292.147	-96.7498	-37.6932	-291.858	-102.985	-55.4135	-292.634	-114.37	-78.2	-295.288	-63.3106	5.47422	-281.516	-59.5775	31.7295	-291.044	-30.3439	6.74867	
190	1.58333	-261.727	1.13096	-4.58413	-260.026	11.7991	-33.4163	-259.833	23.5653	-59.5773	-258.745	30.2413	-79.034	-310.652	-23.1006	-57.6868	-318.289	-24.7303	-84.4492	-321.962	-24.3497	-113.719	-319.887	-46.3876	-57.3346	-328.388	-47.8483	-87.2903	-330.781	-56.1672	-116.392	-309.878	-71.9628	-47.4957	-317.637	-76.7475	-73.093	-320.009	-89.3592	-98.7967	-295.814	-86.0051	-34.2541	-299.666	-95.2354	-56.9834	-303.649	-105.761	-79.8916	-298.339	-60.2182	0.526486	-285.04	-55.7164	27.1432	-288.593	-21.555	8.73704	
191	1.59167	-257.198	1.07055	-4.76321	-250.778	13.9313	-28.1719	-248.688	24.5432	-54.3771	-248.134	30.1187	-77.5905	-306.918	-12.9133	-59.878	-314.539	-10.0245	-87.0873	-317.796	-13.0623	-111.728	-318.276	-34.3464	-57.8225	-326.73	-37.4614	-84.5087	-329.381	-41.2652	-119.519	-313.944	-55.5758	-51.6861	-321.007	-66.7206	-74.6444	-323.154	-75.9064	-99.6846	-301.262	-75.1631	-36.9342	-306.638	-85.7938	-55.3615	-308.779	-93.3851	-80.9022	-300.854	-50.2603	1.98312	-287.565	-47.8778	27.0335	-286.133	-18.907	9.30937	
192	1.6	-246.703	6.95791	-1.11706	-241.644	18.2515	-27.9584	-239.374	26.616	-54.439	-232.457	37.3163	-75.273	-300.775	-0.212192	-61.0997	-306.135	-0.126685	-84.3279	-307.42	3.9609	-113.904	-313.043	-21.838	-55.9952	-321.51	-23.6763	-85.3216	-324.67	-25.1365	-117.369	-313.225	-46.3402	-50.7062	-322.145	-51.0778	-75.346	-323.398	-55.3632	-103.404	-304.897	-69.0529	-34.7989	-311.187	-76.1378	-54.6956	-315.418	-83.9897	-78.2651	-297.542	-40.0325	3.96943	-283.396	-37.1853	30.4455	-281.016	-9.52748	8.89712	
193	1.60833	-237.478	8.17619	3.17475	-230.739	15.0414	-24.5765	-225.705	27.2861	-53.002	-216.506	37.3025	-69.0146	-290.02	9.7396	-61.8037	-292.593	13.5209	-86.2898	-298.003	12.5368	-112.739	-306.664	-8.35919	-60.8217	-313.8	-8.87747	-85.3533	-316.96	-11.3136	-118.191	-311.185	-33.7748	-51.7275	-318.267	-35.1048	-76.1118	-321.741	-41.2207	-99.3231	-303.727	-52.8783	-34.2516	-313.659	-61.8582	-55.787	-317.78	-68.9222	-82.4931	-297.344	-31.2749	0.760345	-286.548	-32.5974	31.3881	-274.168	-1.13449	8.27432	
194	1.61667	-230.294	6.07338	1.10296	-218.335	16.5267	-22.8958	-210.446	23.7982	-46.8356	-204.456	32.2212	-68.7426	-277.755	16.1549	-60.1294	-279.741	22.4504	-88.6287	-281.216	25.1393	-109.364	-295.713	3.53218	-58.6852	-303.697	5.3269	-88.1464	-307.229	2.73864	-116.665	-304.013	-20.3096	-47.7753	-313.368	-20.9528	-72.5201	-317.296	-24.562	-103.722	-303.319	-41.8268	-33.9485	-311.312	-45.1995	-59.377	-315.781	-50.2742	-82.4502	-291.59	-21.026	3.69986	-279.735	-24.4133	30.4053	-266.017	2.75704	11.5317	
195	1.625	-218.536	4.38762	6.19262	-207.127	12.3798	-18.4019	-196.737	24.1036	-45.4236	-186.342	27.949	-62.2401	-262.622	23.7139	-56.28	-266.102	30.4187	-87.046	-266.636	32.6443	-109.937	-285.414	13.4668	-58.777	-291.854	15.6978	-82.9897	-292.862	17.7985	-119.474	-297.244	-10.1813	-47.6558	-306.34	-7.77828	-72.1093	-310.444	-9.82276	-99.0877	-298.98	-29.0637	-36.5095	-306.184	-29.4519	-55.7002	-310.043	-32.9676	-83.2176	-285.07	-10.1338	2.75793	-275.237	-15.2114	27.767	-258.316	9.14457	8.15487	
196	1.63333	-211.456	2.29085	6.74804	-195.847	9.17202	-14.9291	-181.05	18.4374	-39.8563	-170.295	26.156	-62.4791	-247.104	29.4106	-56.2739	-249.257	34.2772	-81.5754	-251.414	38.1808	-108.842	-271.505	20.5374	-55.8347	-277.616	25.5448	-86.9322	-275.524	31.0392	-119.744	-287.338	2.6509	-49.033	-292.639	7.99757	-76.0682	-297.977	5.43999	-101.194	-291.476	-17.34	-35.2318	-301.282	-15.5467	-56.8276	-307.251	-18.64	-81.4272	-277.771	-3.74262	2.99535	-270.63	-9.20949	30.8618	-243.578	12.981	12.1805	
197	1.64167	-198.592	3.20041	8.6894	-184.533	5.17402	-12.5222	-170.856	13.2448	-40.0657	-156.537	17.4173	-57.5047	-231.468	32.4922	-58.1046	-232.057	37.407	-85.1928	-230.432	41.2025	-106.81	-259.318	26.5087	-56.2101	-257.37	34.0823	-83.4705	-259.225	38.0052	-119.129	-274.581	11.6125	-48.861	-279.897	16.6354	-73.8375	-288.042	13.6281	-100.046	-283.773	-6.58277	-34.3364	-293.464	-3.54977	-55.6373	-300.663	-1.22133	-76.8328	-266.367	4.74456	1.66774	-260.584	-5.18411	32.2191	-235.795	14.8963	10.0499	
198	1.65	-188.618	-0.00508324	14.2307	-176.041	2.20834	-11.0492	-159.186	6.36099	-33.5355	-146.81	10.3931	-54.656	-218.398	30.3744	-54.1449	-212.7	37.63	-81.5977	-215.509	41.0028	-106.043	-246.305	31.2126	-59.1475	-247.191	36.8433	-86.9986	-243.733	39.638	-118.397	-265.565	15.2922	-47.0505	-272.124	20.9217	-74.252	-273.342	22.057	-98.6536	-275.966	-1.65888	-31.2707	-285.505	4.64128	-52.8805	-292.498	8.04388	-74.5072	-259.057	10.4058	0.657748	-252.515	1.33176	30.5688	-224.63	16.7646	14.6811	
199	1.65833	-185.817	-2.07075	12.9846	-167.606	0.514029	-9.99253	-148.497	3.14106	-34.6977	-137.81	1.78875	-49.752	-208.732	30.0736	-56.4393	-202.386	33.5164	-80.5107	-198.459	37.8799	-105.638	-231.175	32.2908	-57.6889	-232.502	35.4088	-83.2491	-232.402	36.778	-115.11	-252.274	18.8686	-47.5602	-256.962	23.6742	-72.5008	-262.822	24.0476	-100.7	-269.674	5.34498	-34.9652	-273.69	9.50938	-51.8641	-283.408	11.3614	-74.5567	-245.805	13.4024	0.978474	-246.169	5.737	31.8467	-212.591	20.5009	11.8895	
200	1.66667	-176.441	-3.12135	15.324	-157.741	-3.32087	-6.47015	-137.934	-3.77094	-29.1298	-129.487	-5.58211	-48.0992	-197.719	27.4433	-56.494	-189.225	29.4211	-78.3313	-184.424	31.5469	-105.242	-223.692	28.4688	-53.8567	-217.167	34.2724	-86.4842	-220.298	31.4325	-116.043	-239.853	18.7221	-45.0565	-246.976	23.958	-70.1484	-249.105	24.3458	-100.033	-257.222	5.61638	-31.3779	-264.744	11.4771	-52.7106	-274.057	15.6056	-76.816	-239.44	13.5064	5.70962	-239.763	7.93017	33.9769	-208.19	17.8707	17.9663	
